<?xml version="1.0" encoding="UTF-8"?>
<svg xmlns="http://www.w3.org/2000/svg" xmlns:xlink="http://www.w3.org/1999/xlink" viewBox="0 0 100 100" width="100px" height="100px">
<g id="surface6564712">
<path style=" stroke:none;fill-rule:nonzero;fill:rgb(100%,100%,100%);fill-opacity:1;" d="M 84 38 L 66 38 L 66 2 C 66 1.230469 65.558594 0.53125 64.867188 0.195312 C 64.175781 -0.132812 63.351562 -0.0429688 62.746094 0.441406 C 62.460938 0.667969 34.097656 23.429688 25.613281 29.855469 C 15.144531 37.777344 14 41.527344 14 47.640625 L 14 86 C 14 91.515625 18.484375 96 24 96 L 84 96 C 85.105469 96 86 95.105469 86 94 L 86 40 C 86 38.894531 85.105469 38 84 38 Z M 45.871094 38.542969 C 48.027344 36.136719 51.175781 35.289062 52.898438 36.644531 C 54.628906 38.003906 54.28125 41.054688 52.128906 43.457031 C 49.972656 45.863281 46.828125 46.710938 45.101562 45.351562 C 43.371094 43.992188 43.71875 40.945312 45.871094 38.542969 Z M 28 86 L 65.066406 62.589844 C 65.648438 62.222656 66 61.585938 66 60.898438 L 66 42 L 76 42 L 76 70.5 C 76 71.386719 75.414062 72.171875 74.558594 72.421875 Z M 28 86 "/>
</g>
</svg>
