<?xml version="1.0" encoding="UTF-8"?>
<svg xmlns="http://www.w3.org/2000/svg" xmlns:xlink="http://www.w3.org/1999/xlink" viewBox="0 0 400 400" width="400px" height="400px">
<g id="surface6248039">
<path style=" stroke:none;fill-rule:nonzero;fill:rgb(0%,0%,0%);fill-opacity:1;" d="M 8 152 C 5.113281 151.960938 2.429688 153.476562 0.976562 155.96875 C -0.476562 158.457031 -0.476562 161.542969 0.976562 164.03125 C 2.429688 166.523438 5.113281 168.039062 8 168 L 100 168 C 106.726562 168 112 173.273438 112 180 C 112 186.726562 106.726562 192 100 192 L 24 192 C 10.839844 192 0 202.839844 0 216 L 0 240 C -0.0390625 242.886719 1.476562 245.570312 3.96875 247.023438 C 6.457031 248.476562 9.542969 248.476562 12.03125 247.023438 C 14.523438 245.570312 16.039062 242.886719 16 240 L 16 216 C 16 211.480469 19.480469 208 24 208 L 100 208 C 114.28125 208 125.757812 196.953125 127.375 183.078125 C 127.785156 182.101562 127.996094 181.058594 128 180 C 128 164.628906 115.371094 152 100 152 Z M 208 152 C 194.839844 152 184 162.839844 184 176 L 184 224 C 184 228.519531 180.519531 232 176 232 L 128 232 C 125.113281 231.960938 122.429688 233.476562 120.976562 235.96875 C 119.523438 238.457031 119.523438 241.542969 120.976562 244.03125 C 122.429688 246.523438 125.113281 248.039062 128 248 L 176 248 C 189.160156 248 200 237.160156 200 224 L 200 176 C 200 171.480469 203.480469 168 208 168 L 256 168 C 258.886719 168.039062 261.570312 166.523438 263.023438 164.03125 C 264.476562 161.542969 264.476562 158.457031 263.023438 155.96875 C 261.570312 153.476562 258.886719 151.960938 256 152 Z M 375.765625 152 C 374.453125 152.039062 373.171875 152.398438 372.03125 153.046875 L 260.03125 217.046875 C 256.875 218.84375 255.324219 222.542969 256.257812 226.050781 C 257.1875 229.5625 260.367188 232.003906 264 232 L 368 232 L 368 240 C 367.960938 242.886719 369.476562 245.570312 371.96875 247.023438 C 374.457031 248.476562 377.542969 248.476562 380.03125 247.023438 C 382.523438 245.570312 384.039062 242.886719 384 240 L 384 232 L 392 232 C 394.886719 232.039062 397.570312 230.523438 399.023438 228.03125 C 400.476562 225.542969 400.476562 222.457031 399.023438 219.96875 C 397.570312 217.476562 394.886719 215.960938 392 216 L 384 216 L 384 160 C 384 157.835938 383.125 155.765625 381.574219 154.257812 C 380.023438 152.75 377.925781 151.9375 375.765625 152 Z M 368 173.796875 L 368 216 L 294.140625 216 Z M 368 173.796875 "/>
</g>
</svg>
