<?xml version="1.0" encoding="UTF-8"?>
<svg xmlns="http://www.w3.org/2000/svg" xmlns:xlink="http://www.w3.org/1999/xlink" viewBox="0 0 400 400" width="400px" height="400px">
<g id="surface6247222">
<path style=" stroke:none;fill-rule:nonzero;fill:rgb(0%,0%,0%);fill-opacity:1;" d="M 16.667969 250 L 0 250 L 0 216.667969 C 0 202.882812 11.214844 191.667969 25 191.667969 L 104.167969 191.667969 C 111.058594 191.667969 116.667969 186.058594 116.667969 179.167969 C 116.667969 172.273438 111.058594 166.667969 104.167969 166.667969 L 0 166.667969 L 0 150 L 104.167969 150 C 120.25 150 133.332031 163.082031 133.332031 179.167969 C 133.332031 195.25 120.25 208.332031 104.167969 208.332031 L 25 208.332031 C 20.410156 208.332031 16.667969 212.066406 16.667969 216.667969 Z M 16.667969 250 "/>
<path style=" stroke:none;fill-rule:nonzero;fill:rgb(0%,0%,0%);fill-opacity:1;" d="M 166.667969 250 L 108.332031 250 L 108.332031 233.332031 L 166.667969 233.332031 C 171.257812 233.332031 175 229.601562 175 225 L 175 175 C 175 161.214844 186.214844 150 200 150 L 258.332031 150 L 258.332031 166.667969 L 200 166.667969 C 195.410156 166.667969 191.667969 170.398438 191.667969 175 L 191.667969 225 C 191.667969 238.785156 180.449219 250 166.667969 250 Z M 166.667969 250 "/>
<path style=" stroke:none;fill-rule:nonzero;fill:rgb(0%,0%,0%);fill-opacity:1;" d="M 370.832031 250 L 275 250 L 275 233.332031 L 370.832031 233.332031 C 377.726562 233.332031 383.332031 227.726562 383.332031 220.832031 C 383.332031 213.941406 377.726562 208.332031 370.832031 208.332031 L 296.425781 208.332031 C 284.609375 208.332031 275 198.726562 275 186.910156 L 275 150 L 391.667969 150 L 391.667969 166.667969 L 291.667969 166.667969 L 291.667969 186.910156 C 291.667969 189.535156 293.800781 191.667969 296.425781 191.667969 L 370.832031 191.667969 C 386.917969 191.667969 400 204.75 400 220.832031 C 400 236.917969 386.917969 250 370.832031 250 Z M 370.832031 250 "/>
</g>
</svg>
