<?xml version="1.0" encoding="UTF-8"?>
<svg xmlns="http://www.w3.org/2000/svg" xmlns:xlink="http://www.w3.org/1999/xlink" viewBox="0 0 46 46" width="46px" height="46px">
<g id="surface6466045">
<path style=" stroke:none;fill-rule:nonzero;fill:rgb(100%,100%,100%);fill-opacity:1;" d="M 3.71875 40.691406 C 3.71875 40.691406 3.71875 38.039062 3.71875 37.6875 C 3.71875 33.796875 9.550781 30.257812 15.921875 29.011719 C 15.921875 29.011719 17.871094 27.957031 17.339844 26.007812 C 15.390625 23.53125 14.859375 20.878906 14.859375 20.878906 C 14.507812 20.699219 13.972656 20.347656 13.621094 19.992188 C 13.089844 19.28125 12.382812 17.160156 12.5625 15.570312 C 12.738281 14.152344 13.089844 14.6875 13.269531 14.332031 C 11.851562 11.148438 12.5625 7.078125 14.152344 4.070312 C 17.511719 -1.769531 24.589844 0 25.652344 2.121094 C 32.378906 0.882812 32.199219 11.5 31.140625 14.152344 C 31.140625 14.152344 31.667969 14.332031 31.667969 16.808594 C 31.492188 19.460938 29.371094 21.050781 29.371094 21.050781 C 29.371094 21.761719 28.488281 23.882812 27.070312 25.832031 C 25.832031 28.308594 28.308594 28.839844 28.308594 28.839844 C 34.679688 30.078125 40.511719 33.617188 40.511719 37.507812 C 40.511719 37.859375 40.511719 40.511719 40.511719 40.511719 C 40.511719 42.992188 30.960938 45.648438 22.117188 45.648438 C 13.449219 45.648438 3.71875 44.761719 3.71875 40.691406 Z M 3.71875 40.691406 "/>
</g>
</svg>
